# xmcd
#
# Track frame offsets:
#	150
#	12611
#	29938
#	49224
#	64500
#	76194
#	96325
#	114181
#	133045
#	147554
#	161118
#	180112
#	194480
#	211257
#	228330
#	251501
#
# Disc length: 3359 seconds
#
# Revision: 1
# Processed by: cddbd v1.5.2PL0 Copyright (c) Steve Scherf et al.
# Submitted via: audiograbber 1.83.01
#
DISCID=e10d1d10
DTITLE=ALLSTAR KARAOKE - MIXED COUNTRY VOL 1 DISK 2
DYEAR=1900
DGENRE=
TTITLE0=PARTON, DOLLY - I WILL ALWAYS LOVE YOU
TTITLE1=TRITT, TRAVIS - IT'S A GREAT DAY TO BE ALIVE
TTITLE2=HILL/MCGRAW - LET'S MAKE LOVE
TTITLE3=PAISLEY, BRAD - ME NEITHER
TTITLE4=MCBRIDE, MARTINA - MY BABY LOVE ME
TTITLE5=BROOKS and DUNN - ONLY IN AMERICA
TTITLE6=CARTER, DEANNA - STRAWBERRY WINE
TTITLE7=PAISLEY, BRAD - TWO PEOPLE FELL IN LOVE
TTITLE8=HILL, FAITH - WAY YOU LOVE ME
TTITLE9=STRAIT, GEORGE - WHAT DO YOU SAY TO THAT
TTITLE10=BLACK, CLINT - WHEN I SAID I DO
TTITLE11=JACKSON, ALAN - WHEN SOMEBODY LOVES YOU
TTITLE12=ANDREWS, JESSICA - WHO I AM
TTITLE13=DIXIE CHICKS - WIDE OPEN SPACES
TTITLE14=JACKSON, ALAN - WWW.MEMORY
TTITLE15=DATA TRACK - Data Track
EXTD=
EXTT0=
EXTT1=
EXTT2=
EXTT3=
EXTT4=
EXTT5=
EXTT6=
EXTT7=
EXTT8=
EXTT9=
EXTT10=
EXTT11=
EXTT12=
EXTT13=
EXTT14=
EXTT15=DATA TRAC
PLAYORDER=
